<?xml version="1.0" encoding="UTF-8"?><svg id="Layer_1" xmlns="http://www.w3.org/2000/svg" viewBox="0 0 1920 511.28"><defs><style>.cls-1{fill:#fff;}</style></defs><path class="cls-1" d="m198.79,416.17c-11.59-3.54-42.89-5.37-68.22-13.23-6.01-1.42-12.11-3.36-18.19-5.61l32.23,113.95h76.96c6.12-3.94,11.9-8.61,17.13-14.47,27.31-32.76-2.16-72.67-39.91-80.64Z"/><path class="cls-1" d="m422.6,0H0l54.77,193.65c38.5-31.14,97.45-39.87,145.08-25.54,22.71,5.68,52.18,18.83,77.65,19.5,29.4,1.36,17.76,32.42,17.76,32.42,27.72-11.85,28.12-31.36,20.11-52.38,0,0-.11.05-.14.06-3.95-11.9-13.01-21.02.77-42.79,13.43-21.22,28.45-12.14,45.14-37.97,8.38-12.97,26.46-39.27,49.04-28.43,21.98,10.56,10.53,44.52,6.67,61.86-6.69,30.03,9.86,33.33,3.01,57.49-9.85,34.78-31.19,19.24-44.15,39.9l-.07-.04c-17.89,25.89-41.88,45.12-82.85,45.84-37.32,1.15-70.19-8.73-104.52-18.87-10.65-3.02-22.11-5.2-33.06-5.54-23.45-2.3-58.68,9.52-59.97,34.58,2.66,34.77,53.73,46.41,85.44,49.35,11.33,1.09,27.5,2.37,38.53,5,88.5,15.98,145.04,103.01,119.47,183.19h61.25L534.96,0h-112.36Z"/><path class="cls-1" d="m777.41,12.05h36.18l-76.27,220.34h-39.77L621.28,12.05h36.18l58.35,180.57h3.26l58.35-180.57Z"/><path class="cls-1" d="m845.81,232.39V12.05h33.25v220.34h-33.25Z"/><path class="cls-1" d="m1074.28,90.93c0,27.06-19.89,48.89-46.94,48.89h-65.84v92.58h-33.25V12.05h99.09c27.05,0,46.94,21.83,46.94,48.89v29.98Zm-33.25-22.17c0-18.25-7.82-27.05-28.36-27.05h-51.17v68.45h51.17c20.54,0,28.36-8.8,28.36-27.05v-14.35Z"/><path class="cls-1" d="m1229.39,12.05h37.16l-73.99,135.92v84.42h-33.25v-84.42l-73.99-135.92h37.16l51.83,99.73h3.26l51.82-99.73Z"/><path class="cls-1" d="m1420.35,232.39l-46.93-92.58h-48.24v92.58h-33.24V12.05h99.09c27.05,0,46.94,21.83,46.94,48.89v29.98c0,21.19-12.06,39.11-30.32,45.96l48.89,95.51h-36.18Zm-15.64-163.63c0-18.25-7.82-27.05-28.36-27.05h-51.18v68.45h51.18c20.54,0,28.36-8.8,28.36-27.05v-14.35Z"/><path class="cls-1" d="m777.41,442.5c0,39.11-26.4,56.72-73.67,56.72-31.29,0-68.45-3.27-68.45-3.27v-32.27s36.83,3.91,63.89,3.91c30.64,0,44.98-8.8,44.98-29.01v-9.13c0-14.66-3.26-24.12-26.07-26.73l-35.86-4.24c-28.68-3.26-47.92-24.77-47.92-53.79v-17.6c0-37.81,27.05-55.41,72.36-55.41,21.19,0,47.26,2.29,59.97,3.59v31.61s-37.49-4.24-56.06-4.24c-30.32,0-43.03,7.83-43.03,28.69v8.8c0,13.04,4.24,24.13,25.42,26.73l37.49,4.57c27.71,3.26,46.94,22.17,46.94,51.17v19.89Z"/><path class="cls-1" d="m815.18,495.63v-220.34h131.68v29.66h-98.44v66.16h83.12v29.34h-83.12v65.18h101.05v29.99h-134.29Z"/><path class="cls-1" d="m1111.43,495.63c-15.97,1.3-38.46,3.59-56.06,3.59-42.7,0-82.79-12.72-82.79-68.78v-89.97c0-56.06,40.74-68.77,83.44-68.77,17.6,0,38.78,2.29,54.76,3.59v31.29s-31.29-3.91-53.13-3.91c-40.42,0-51.82,11.74-51.82,48.89v63.89c0,37.16,11.41,52.8,51.82,52.8,21.84,0,53.78-3.91,53.78-3.91v31.3Z"/><path class="cls-1" d="m1139.75,430.12v-154.82h33.25v148.63c0,35.53,23.14,44.01,46.61,44.01s46.61-8.47,46.61-44.01v-148.63h33.24v154.82c0,48.24-36.83,69.11-79.85,69.11s-79.86-20.86-79.86-69.11Z"/><path class="cls-1" d="m1472.49,495.63l-46.93-92.58h-48.24v92.58h-33.24v-220.34h99.09c27.05,0,46.94,21.83,46.94,48.89v29.98c0,21.19-12.06,39.11-30.32,45.96l48.89,95.51h-36.18Zm-15.64-163.63c0-18.25-7.82-27.05-28.36-27.05h-51.18v68.45h51.18c20.54,0,28.36-8.8,28.36-27.05v-14.35Z"/><path class="cls-1" d="m1542.52,495.63v-220.34h33.25v220.34h-33.25Z"/><path class="cls-1" d="m1697.65,304.95v190.68h-33.25v-190.68h-60.3v-29.66h153.85v29.66h-60.3Z"/><path class="cls-1" d="m1882.84,275.29h37.16l-73.99,135.92v84.42h-33.25v-84.42l-73.99-135.92h37.16l51.83,99.73h3.26l51.82-99.73Z"/></svg>