<svg xmlns="http://www.w3.org/2000/svg" viewBox="0 0 1920 511"><path d="M199 416c-12-3-43-5-68-13-6-1-13-3-19-6l33 114h77l17-14c27-33-2-73-40-81ZM423 0H0l55 194c38-31 97-40 145-26 23 6 52 19 78 20 29 1 17 32 17 32 28-12 28-31 20-52-4-12-13-21 1-43 13-21 28-12 45-38 9-13 27-39 49-28 22 10 11 44 7 61-7 30 10 34 3 58-10 35-31 19-44 40a96 96 0 0 1-83 46c-38 1-70-9-105-19-10-3-22-5-33-6-23-2-58 10-60 35 3 35 54 46 86 49 11 1 27 2 38 5 89 16 145 103 120 183h61L535 0H423Zm354 12h37l-77 220h-39L621 12h36l59 181h3l58-181Zm69 220V12h33v220h-33Zm228-141c0 27-20 49-47 49h-66v92h-33V12h99c27 0 47 22 47 49v30Zm-33-22c0-18-8-27-28-27h-52v68h52c20 0 28-9 28-27V69Zm188-57h38l-74 136v84h-34v-84l-74-136h37l52 100h4l51-100Zm191 220-47-92h-48v92h-33V12h99c27 0 47 22 47 49v30c0 21-12 39-30 46l49 95h-37Zm-15-163c0-18-8-27-29-27h-51v68h51c21 0 29-9 29-27V69ZM777 443c0 39-26 56-73 56-32 0-69-3-69-3v-32s37 4 64 4c31 0 45-9 45-29v-10c0-14-3-24-26-26l-36-5c-28-3-48-24-48-53v-18c0-38 27-55 73-55 21 0 47 2 60 3v32s-38-4-56-4c-31 0-43 7-43 28v9c0 13 4 24 25 27l37 4c28 4 47 23 47 52v19Zm38 53V275h132v30h-99v66h84v29h-84v66h101v30H815Zm296 0-56 3c-42 0-82-13-82-69v-90c0-56 40-68 83-68l55 3v32s-32-4-53-4c-41 0-52 11-52 49v63c0 38 11 53 52 53 21 0 53-4 53-4v32Zm29-66V275h33v149c0 35 23 44 47 44s46-9 46-44V275h33v155c0 48-36 69-79 69s-80-21-80-69Zm332 66-46-93h-49v93h-33V275h99c27 0 47 22 47 49v30c0 21-12 39-30 46l49 96h-36Zm-15-164c0-18-8-27-29-27h-51v68h51c21 0 29-8 29-27v-14Zm86 164V275h33v221h-33Zm155-191v191h-34V305h-60v-30h154v30h-60Z"/><path d="M1883 275h37l-74 136v85h-33v-85l-74-136h37l52 100h3l52-100Z"/></svg>
